<svg xmlns="http://www.w3.org/2000/svg" viewBox="0 0 87.47 45.65"><defs><style>.cls-1{fill:#fff;}</style></defs><g id="Layer_2" data-name="Layer 2"><g id="Layer_1-2" data-name="Layer 1"><path class="cls-1" d="M32.91,12.13h6.31V34.08H34l-.65-4.21a6.8,6.8,0,0,1-7.47,4.47C21.94,34,19,31.3,19,25.82c0-4.42,0-13.69,0-13.69h6.31V24.54c0,3.49,1.62,4.62,3.88,4.49,2.54-.15,3.75-2.41,3.75-6.23Z"/><rect class="cls-1" x="44.49" y="1.31" width="6.31" height="32.77"/><rect class="cls-1" x="56.08" y="1.31" width="6.31" height="32.77"/><path class="cls-1" d="M11.38,5.86a5.19,5.19,0,0,1,5.68.47L19,1.7A10.62,10.62,0,0,0,7.61,1.61C4.11,4,3.1,6.5,3.1,11.69v.45H0v4.73H3.1V34.09H9.4V16.87h6.53V12.14H9.4v-.45c0-3.6.15-4.67,2-5.83"/><path class="cls-1" d="M87.47,12.13H81.16V22.8c0,3.82-1.21,6.08-3.75,6.23-2.27.13-3.89-1-3.89-4.49V12.13H67.21s0,9.27,0,13.69c0,5.48,3,8.14,6.89,8.52a6.75,6.75,0,0,0,7.27-4l0,3.77c.06,3.21-.52,4.72-2.18,5.7a5.62,5.62,0,0,1-5.68-.46L71.59,44A10.62,10.62,0,0,0,83,44c3.47-2.37,4.5-4.85,4.51-10h0V12.13"/></g></g></svg>