<svg xmlns="http://www.w3.org/2000/svg" viewBox="0 0 495.07 147.02"><defs><style>.cls-1{fill:#fff;}</style></defs><g id="Layer_2" data-name="Layer 2"><g id="Layer_1-2" data-name="Layer 1"><path class="cls-1" d="M25.25,58.47V31.92c0-5-2.3-8-7.24-8-4.11,0-8.31,2.53-12.58,6.68V58.47H0V1L5.43,0V25.41c4-3.5,8.39-6.27,13.65-6.27,7.73,0,11.6,4.4,11.6,11.72V58.47Z"/><path class="cls-1" d="M56.67,59.29c-10,0-17.44-7.33-17.44-20s7.65-20.11,17.44-20.11c10.12,0,17.68,7.33,17.68,20.11S66.62,59.29,56.67,59.29Zm0-35.59c-7.73,0-11.93,6.43-11.93,15.55,0,8.88,4.28,15.48,11.93,15.48,7.9,0,12.09-6.36,12.09-15.48C68.76,30.38,64.48,23.7,56.67,23.7Z"/><path class="cls-1" d="M98.7,59a27,27,0,0,1-10.12-1.87V72.48l-5.42.89V20h4.19l.91,5.54c3-3.42,6.9-6.35,12.58-6.35,8.47,0,15.63,6.11,15.63,19C116.47,52.2,108.16,59,98.7,59Zm1.56-35c-4.6,0-8.14,2.69-11.68,6.92V52.12a21.46,21.46,0,0,0,10,2.28c7,0,12.42-5.29,12.42-16C111,29,106.43,23.94,100.26,23.94Z"/><path class="cls-1" d="M155.78,39.58H128.72c.17,9.44,4.61,15.06,12.42,15.06,5.18,0,9.71-2.28,13.74-5.7l.82,4.89a22.75,22.75,0,0,1-14.89,5.46c-10.2,0-17.52-6.85-17.52-20.12,0-12.38,7.24-20,16.78-20,10.61,0,15.71,8.63,15.71,19.3ZM140.07,23.45c-6.08,0-10,4.48-11.1,11.89h21.22C149.61,28.42,146.32,23.45,140.07,23.45Z"/><path class="cls-1" d="M197.32,63.28c-2.8,7.49-6.25,9.85-12,9.85a14.48,14.48,0,0,1-2.14-.24l-.74-4.73a16.44,16.44,0,0,0,3.21.33c3.21,0,5.1-1.39,6.58-5.13L194,58.72,179.31,20.44l5.26-1,12.09,32.82L208.18,20h5.59Z"/><path class="cls-1" d="M234.58,59.29c-10,0-17.43-7.33-17.43-20s7.64-20.11,17.43-20.11c10.12,0,17.68,7.33,17.68,20.11S244.53,59.29,234.58,59.29Zm0-35.59c-7.73,0-11.93,6.43-11.93,15.55,0,8.88,4.28,15.48,11.93,15.48,7.9,0,12.09-6.36,12.09-15.48C246.67,30.38,242.39,23.7,234.58,23.7Z"/><path class="cls-1" d="M287.3,58.47l-.9-5.7c-4.28,3.75-8.72,6.52-14,6.52-7.82,0-11.6-4.48-11.6-11.81V20h5.43V46.5c0,5,2.3,7.9,7.24,7.9,4.11,0,8.3-2.44,12.58-6.6V20h5.43V58.47Z"/><path class="cls-1" d="M336.41,59.29c-10,0-17.6-7.33-17.6-20,0-12.95,7.89-20.11,17.76-20.11a21.45,21.45,0,0,1,12.67,3.91l-.91,5.37c-3.7-3.09-7.4-4.64-11.84-4.64-7.4,0-12.17,5.94-12.17,15.39S329.09,54.56,337,54.56A17.2,17.2,0,0,0,348.83,50l.74,4.89A20.53,20.53,0,0,1,336.41,59.29Z"/><path class="cls-1" d="M372.35,59.29c-10,0-17.44-7.33-17.44-20s7.65-20.11,17.44-20.11c10.12,0,17.68,7.33,17.68,20.11S382.3,59.29,372.35,59.29Zm0-35.59c-7.73,0-11.92,6.43-11.92,15.55,0,8.88,4.27,15.48,11.92,15.48,7.9,0,12.09-6.36,12.09-15.48C384.44,30.38,380.16,23.7,372.35,23.7Z"/><path class="cls-1" d="M448.51,58.47V31.92c0-5-2.05-8-7.07-8-4,0-8.06,2.45-12.34,6.6V58.47h-5.34V31.92c0-5-2.06-8-7.08-8-4,0-8.14,2.45-12.33,6.52v28h-5.43V20h4.19l.91,5.54c4.19-3.67,8.55-6.35,13.73-6.35,6,0,9.3,2.44,10.69,6.68,4.28-3.83,8.81-6.68,14.15-6.68,7.73,0,11.35,4.4,11.35,11.72V58.47Z"/><path class="cls-1" d="M495.07,39.58H468c.16,9.44,4.61,15.06,12.42,15.06,5.18,0,9.7-2.28,13.73-5.7l.83,4.89a22.77,22.77,0,0,1-14.89,5.46c-10.2,0-17.52-6.85-17.52-20.12,0-12.38,7.24-20,16.78-20,10.61,0,15.71,8.63,15.71,19.3ZM479.36,23.45c-6.09,0-10,4.48-11.1,11.89h21.22C488.9,28.42,485.61,23.45,479.36,23.45Z"/><path class="cls-1" d="M14.15,146.69A42.35,42.35,0,0,1,0,144.17V88.71l5.43-1v25c2.79-3,6.58-5.87,12-5.87,8.47,0,15.62,6.11,15.62,19C33.06,139.94,24.92,146.69,14.15,146.69Zm2.71-35c-4.36,0-8,2.68-11.43,6.67v22.16a22.8,22.8,0,0,0,9,1.54c7.73,0,13.16-5,13.16-16C27.55,116.73,23,111.68,16.86,111.68Z"/><path class="cls-1" d="M65.39,146.21l-.91-5.13c-3.62,3.33-8.14,5.94-13.73,5.94-6.75,0-11.6-3.66-11.6-10.5,0-9,7.4-13.28,25-15V119c0-5.21-3.12-7.41-8.06-7.41A31.39,31.39,0,0,0,42.69,115L42,110.21a35,35,0,0,1,14.47-3.34c8.64,0,13.08,4,13.08,11.89v27.45Zm-1.24-20.44c-15.29,1.54-19.57,5.21-19.57,10.42,0,4.15,2.88,6.27,7,6.27s8.8-2.28,12.58-5.78Z"/><path class="cls-1" d="M95.66,147c-10,0-17.6-7.33-17.6-20,0-12.95,7.89-20.12,17.76-20.12a21.45,21.45,0,0,1,12.67,3.91l-.91,5.38c-3.7-3.1-7.4-4.64-11.84-4.64-7.4,0-12.17,5.94-12.17,15.39s4.77,15.39,12.66,15.39a17.2,17.2,0,0,0,11.85-4.56l.74,4.88A20.47,20.47,0,0,1,95.66,147Z"/><path class="cls-1" d="M141.8,146.78l-19.33-21v20.44H117V88.71l5.43-1v36.48l17-16.53h6.82l-18.09,17.18,19.49,20.85Z"/></g></g></svg>