<svg xmlns="http://www.w3.org/2000/svg" xmlns:xlink="http://www.w3.org/1999/xlink" viewBox="0 0 65.88 22.39"><defs><style>.a{fill:url(#a);}.b{fill:#fff;}</style><linearGradient id="a" x1="32.94" x2="32.94" y2="22.39" gradientUnits="userSpaceOnUse"><stop offset="0" stop-color="#feb61b"/><stop offset="0.43" stop-color="#fdae17"/><stop offset="0.5" stop-color="#fdac16"/><stop offset="1" stop-color="#ff9a0d"/></linearGradient></defs><rect class="a" width="65.88" height="22.39" rx="11.19"/><path class="b" d="M13.23,10.93c-.74-.19-1-.37-1-.69s.27-.55.81-.55a3,3,0,0,1,1.45.41l.14-.84a3.86,3.86,0,0,0-1.57-.32c-1,0-1.67.56-1.67,1.32s.45,1.19,1.57,1.47c.85.21,1.12.37,1.12.81s-.36.63-1,.63a3,3,0,0,1-1.67-.55l-.13.84a4,4,0,0,0,1.73.44c1.23,0,1.88-.56,1.88-1.42S14.41,11.23,13.23,10.93Z"/><path class="b" d="M18.74,8.94a2.45,2.45,0,0,0-1.61.73V6.59l-.89.14V13.8h.89V10.51a2,2,0,0,1,1.37-.77c.52,0,.73.33.73.82V13.8h.89V10.34A1.27,1.27,0,0,0,18.74,8.94Z"/><path class="b" d="M23.42,8.94a2.21,2.21,0,0,0-2.18,2.49,2.21,2.21,0,1,0,4.4,0A2.22,2.22,0,0,0,23.42,8.94Zm0,4.23c-.84,0-1.28-.76-1.28-1.74s.42-1.74,1.28-1.74,1.32.76,1.32,1.74S24.3,13.17,23.42,13.17Z"/><path class="b" d="M29.14,8.94a2,2,0,0,0-1.54.79L27.49,9h-.71v6.62l.89-.13V13.65a3.3,3.3,0,0,0,1.19.21C30,13.86,31,13,31,11.29,31,9.7,30.17,8.94,29.14,8.94Zm-.32,4.18a2.23,2.23,0,0,1-1.15-.26V10.57A1.67,1.67,0,0,1,29,9.73c.65,0,1.12.56,1.12,1.6S29.57,13.12,28.82,13.12Z"/><path class="b" d="M41.88,11.19c0,.89-.29,1.41-.88,1.45s-.9-.23-.9-1.05V8.71H38.63s0,2.15,0,3.18a1.75,1.75,0,0,0,1.6,2,1.57,1.57,0,0,0,1.73-1l.15,1h1.22V8.71H41.88Z"/><rect class="b" x="44.57" y="6.2" width="1.47" height="7.62"/><rect class="b" x="47.26" y="6.2" width="1.47" height="7.62"/><path class="b" d="M36.87,7.25a1.2,1.2,0,0,1,1.32.11l.45-1.07a2.48,2.48,0,0,0-2.65,0,2.37,2.37,0,0,0-1,2.35v.1h-.72v1.1H35v4h1.46v-4h1.52V8.71H36.41v-.1C36.41,7.77,36.45,7.52,36.87,7.25Z"/><path class="b" d="M53.09,8.71v2.48c0,.89-.28,1.41-.87,1.45s-.91-.23-.91-1.05V8.71H49.85s0,2.15,0,3.18a1.75,1.75,0,0,0,1.6,2,1.57,1.57,0,0,0,1.69-.94v.88c0,.75-.12,1.1-.51,1.33A1.31,1.31,0,0,1,51.31,15l-.44,1.07a2.47,2.47,0,0,0,2.64,0,2.36,2.36,0,0,0,1-2.32V8.71Z"/></svg>