<?xml version="1.0" encoding="utf-8"?>
<!-- Generator: Adobe Illustrator 24.1.2, SVG Export Plug-In . SVG Version: 6.00 Build 0)  -->
<svg version="1.1" id="Layer_1" xmlns="http://www.w3.org/2000/svg" xmlns:xlink="http://www.w3.org/1999/xlink" x="0px" y="0px"
	 viewBox="0 0 178.3 67.3" style="enable-background:new 0 0 178.3 67.3;" xml:space="preserve">
<style type="text/css">
	.st0{fill:#FFFFFF;}
	.st1{fill:#3653A2;}
</style>
<g>
	
		<image style="overflow:visible;opacity:0.11;" width="174" height="76" xlink:href="610F6E02359B385C.png"  transform="matrix(1 0 0 1 7.4873 1.3555)">
	</image>
	<g>
		<rect x="17.5" y="10.9" class="st0" width="143.3" height="45.4"/>
	</g>
</g>
<path class="st1" d="M49.7,38.9c-1.2,0-2.5-0.3-3.6-0.8l0.4-2.2c1,0.6,2.1,0.9,3.3,1c0.7,0,1.2-0.3,1.2-0.9s-0.3-0.8-1.8-1.4
	c-2.1-0.8-3-1.5-3-3.2c0-2,1.6-3,3.5-3c1.1,0,2.2,0.2,3.1,0.7l-0.4,2.1c-0.8-0.5-1.7-0.8-2.7-0.8c-0.8,0-1.1,0.3-1.1,0.8
	s0.3,0.8,1.6,1.3c2.2,0.8,3.2,1.6,3.2,3.2C53.4,37.9,51.8,38.9,49.7,38.9z"/>
<path class="st1" d="M62.4,38.8v-4.2h-3.6v4.2h-2.6V28.5h2.6v3.8h3.6v-3.8h2.6v10.2H62.4z"/>
<path class="st1" d="M72.7,38.9c-3,0-4.9-2.1-4.9-5.3s1.9-5.3,4.9-5.3s4.9,2.1,4.9,5.3C77.7,36.8,75.8,38.9,72.7,38.9z M72.7,30.3
	c-1.5,0-2.4,1.3-2.4,3.3s0.9,3.3,2.4,3.3c1.5,0,2.4-1.3,2.4-3.3S74.3,30.3,72.7,30.3L72.7,30.3z"/>
<path class="st1" d="M83.8,35.4h-0.7v3.4h-2.6V28.5h3.3c2.5,0,4.1,1.1,4.1,3.3S86.3,35.4,83.8,35.4z M83.8,30.4h-0.6v3h0.6
	c1.1,0,1.7-0.5,1.7-1.5C85.5,30.9,84.9,30.4,83.8,30.4L83.8,30.4z"/>
<path class="st1" d="M101,38.8l-4.1-6.1v6.1h-2.4V28.5h2.5l3.8,5.7v-5.7h2.4v10.2H101z"/>
<path class="st1" d="M111.1,38.9c-3,0-4.9-2.1-4.9-5.3s1.9-5.3,4.9-5.3s4.9,2.1,4.9,5.3C116,36.8,114.1,38.9,111.1,38.9z
	 M111.1,30.3c-1.5,0-2.4,1.3-2.4,3.3s0.9,3.3,2.4,3.3s2.4-1.3,2.4-3.3C113.5,31.6,112.6,30.3,111.1,30.3L111.1,30.3z"/>
<path class="st1" d="M129.4,38.8h-2.6l-1.8-6.6l-1.8,6.6h-2.6l-2.7-9.9l2.8-0.4l1.6,6.5l1.7-6.4h2.6l1.7,6.4l1.5-6.4h2.5L129.4,38.8
	z"/>
</svg>
